<svg id="facebook.svg" xmlns="http://www.w3.org/2000/svg" width="31.84" height="30.88"><path id="Shape_1_copy_6" data-name="Shape 1 copy 6" d="M1519.29 8116.06h-21.58a.485.485 0 0 0 0 .97h21.58a1.583 1.583 0 0 1 1.58 1.58v25.78a1.583 1.583 0 0 1-1.58 1.58h-8.76v-6.22a.485.485 0 1 0-.97 0v6.22h-3.15v-11.38a.48.48 0 0 0-.48-.48h-2.09v-3.16h2.09a.48.48 0 0 0 .48-.48v-3.1a5.7 5.7 0 0 1 5.69-5.7h3.63v3.16h-3.63a2.544 2.544 0 0 0-2.54 2.54v3.1a.487.487 0 0 0 .48.48h5.69v3.16h-5.69a.487.487 0 0 0-.48.48v3.1a.485.485 0 0 0 .97 0v-2.61h5.68a.482.482 0 0 0 .48-.49v-4.12a.482.482 0 0 0-.48-.49h-5.68v-2.61a1.575 1.575 0 0 1 1.57-1.58h4.11a.474.474 0 0 0 .48-.48v-4.12a.482.482 0 0 0-.48-.49h-4.11a6.671 6.671 0 0 0-6.65 6.67v2.61h-2.09a.489.489 0 0 0-.48.49v4.12a.489.489 0 0 0 .48.49h2.09v10.89h-11.85a1.583 1.583 0 0 1-1.58-1.58v-25.78a1.583 1.583 0 0 1 1.58-1.58h2.05a.485.485 0 1 0 0-.97h-2.05a2.552 2.552 0 0 0-2.54 2.55v25.78a2.544 2.544 0 0 0 2.54 2.54h25.69a2.544 2.544 0 0 0 2.54-2.54v-25.78a2.552 2.552 0 0 0-2.54-2.55z" transform="translate(-1490 -8116.06)" fill-rule="evenodd" fill="#008eff"/><path d="M1518.04 8116.06h-21.44a.485.485 0 0 0 0 .97h21.44a1.573 1.573 0 0 1 1.56 1.58v25.78a1.573 1.573 0 0 1-1.56 1.58h-8.71v-6.22a.475.475 0 1 0-.95 0v6.22h-3.13v-11.38a.487.487 0 0 0-.48-.48h-2.07v-3.16h2.07a.487.487 0 0 0 .48-.48v-3.1a5.681 5.681 0 0 1 5.65-5.7h3.6v3.16h-3.6a2.533 2.533 0 0 0-2.52 2.54v3.1a.478.478 0 0 0 .47.48h5.65v3.16h-5.65a.478.478 0 0 0-.47.48v3.1a.475.475 0 1 0 .95 0v-2.61h5.65a.489.489 0 0 0 .48-.49v-4.12a.489.489 0 0 0-.48-.49h-5.65v-2.61a1.575 1.575 0 0 1 1.57-1.58h4.08a.48.48 0 0 0 .48-.48v-4.12a.489.489 0 0 0-.48-.49h-4.08a6.649 6.649 0 0 0-6.61 6.67v2.61h-2.07a.482.482 0 0 0-.48.49v4.12a.482.482 0 0 0 .48.49h2.07v10.89h-11.77a1.573 1.573 0 0 1-1.56-1.58v-25.78a1.573 1.573 0 0 1 1.56-1.58h2.04a.485.485 0 0 0 0-.97h-2.04a2.542 2.542 0 0 0-2.52 2.55v25.78a2.533 2.533 0 0 0 2.52 2.54h25.52a2.533 2.533 0 0 0 2.52-2.54v-25.78a2.542 2.542 0 0 0-2.52-2.55z" transform="translate(-1490 -8116.06)" fill="#006bc0" fill-rule="evenodd"/></svg>