<svg id="Location.svg" xmlns="http://www.w3.org/2000/svg" width="82.031" height="76"><path id="Shape_9_copy_2" data-name="Shape 9 copy 2" d="M547.483 5521.05a3.894 3.894 0 0 1-3.412 1.95H475.9a3.9 3.9 0 0 1-3.413-1.95 3.789 3.789 0 0 1-.039-3.75l7.792-14.17a3.933 3.933 0 0 1 3.451-2.03h9.031a1.29 1.29 0 0 1 0 2.58h-9.031a1.4 1.4 0 0 0-1.237.7l-7.791 14.17a1.174 1.174 0 0 0 .012 1.19 1.358 1.358 0 0 0 1.225.68h68.174a1.361 1.361 0 0 0 1.227-.68 1.174 1.174 0 0 0 .011-1.19l-7.79-14.17a1.407 1.407 0 0 0-1.238-.7h-9.034a1.29 1.29 0 0 1 0-2.58h9.031a3.93 3.93 0 0 1 3.448 2.03l7.793 14.17a3.789 3.789 0 0 1-.039 3.75zm-9.621-5.78a1.29 1.29 0 0 1 0 2.58h-10.137a1.29 1.29 0 0 1 0-2.58h10.137zm-13.726-3.15a1.294 1.294 0 0 1 .351-1.78l3.8-2.58a1.265 1.265 0 0 1 .7-.22h5.069a1.29 1.29 0 0 1 0 2.58h-4.689l-3.478 2.36a1.262 1.262 0 0 1-1.753-.36zm-30.625 4.44a1.281 1.281 0 0 1-1.267 1.29h-10.138a1.29 1.29 0 0 1 0-2.58h10.138a1.281 1.281 0 0 1 1.267 1.29zm-7.6-9.02h5.068a1.271 1.271 0 0 1 .7.22l3.8 2.58a1.29 1.29 0 0 1 .51 1.44 1.268 1.268 0 0 1-1.214.92 1.252 1.252 0 0 1-.7-.22l-3.483-2.36h-4.688a1.29 1.29 0 0 1 .004-2.58zm37.148-8.28c-3.132 4.49-6.257 8.51-8.328 11.09-.3.37-.585.72-.859 1.06h6.253a1.285 1.285 0 0 1 0 2.57h-20.278a1.285 1.285 0 0 1 0-2.57h6.253c-.274-.34-.556-.69-.858-1.06-2.072-2.59-5.2-6.6-8.329-11.09a113.08 113.08 0 0 1-8.371-13.71c-2.588-5.17-3.9-9.46-3.9-12.75a26.044 26.044 0 0 1 1.993-10.04 25.222 25.222 0 0 1 33.224-13.73 1.3 1.3 0 0 1 .268 2.22 1.244 1.244 0 0 1-1.258.16 22.613 22.613 0 0 0-17.753 0 23.237 23.237 0 0 0-13.939 21.39c0 2.88 1.216 6.78 3.624 11.58a111.293 111.293 0 0 0 8.181 13.39c3.089 4.43 6.177 8.4 8.224 10.95.68.85 1.292 1.6 1.815 2.23a1.261 1.261 0 0 0 1.931 0c.522-.63 1.134-1.38 1.814-2.23 2.047-2.55 5.135-6.52 8.224-10.95a111.293 111.293 0 0 0 8.181-13.39c2.406-4.8 3.625-8.7 3.625-11.58a23.385 23.385 0 0 0-6.681-16.42 1.294 1.294 0 0 1 .561-2.17 1.258 1.258 0 0 1 1.232.35 25.971 25.971 0 0 1 7.422 18.24c0 3.29-1.313 7.58-3.9 12.75a113.729 113.729 0 0 1-8.374 13.71zm-6.249-36.32a1.282 1.282 0 0 1 .9-.92 1.258 1.258 0 0 1 1.232.35 13.035 13.035 0 0 1 1.576 16.26 12.561 12.561 0 0 1-15.385 4.75 12.924 12.924 0 0 1-7.579-14.41 12.725 12.725 0 0 1 12.428-10.37 1.285 1.285 0 0 1 0 2.57 10.187 10.187 0 0 0-9.942 8.3 10.34 10.34 0 0 0 6.063 11.53 10.047 10.047 0 0 0 12.309-3.8 10.431 10.431 0 0 0-1.261-13.01 1.294 1.294 0 0 1-.344-1.25z" transform="translate(-467.969 -5447)" fill-rule="evenodd" fill="#008eff"/><path id="Shape_9_copy" data-name="Shape 9 copy" d="M549.483 5521.05a3.894 3.894 0 0 1-3.412 1.95H477.9a3.9 3.9 0 0 1-3.413-1.95 3.789 3.789 0 0 1-.039-3.75l7.792-14.17a3.934 3.934 0 0 1 3.451-2.03h9.031a1.29 1.29 0 0 1 0 2.58h-9.031a1.4 1.4 0 0 0-1.237.7l-7.791 14.17a1.174 1.174 0 0 0 .012 1.19 1.358 1.358 0 0 0 1.225.68h68.174a1.361 1.361 0 0 0 1.227-.68 1.174 1.174 0 0 0 .011-1.19l-7.79-14.17a1.407 1.407 0 0 0-1.238-.7h-9.034a1.29 1.29 0 0 1 0-2.58h9.031a3.93 3.93 0 0 1 3.448 2.03l7.793 14.17a3.789 3.789 0 0 1-.039 3.75zm-9.621-5.78a1.29 1.29 0 0 1 0 2.58h-10.137a1.29 1.29 0 0 1 0-2.58h10.137zm-13.726-3.15a1.294 1.294 0 0 1 .351-1.78l3.8-2.58a1.265 1.265 0 0 1 .7-.22h5.069a1.29 1.29 0 0 1 0 2.58h-4.689l-3.478 2.36a1.262 1.262 0 0 1-1.753-.36zm-30.625 4.44a1.281 1.281 0 0 1-1.267 1.29h-10.138a1.29 1.29 0 0 1 0-2.58h10.138a1.281 1.281 0 0 1 1.267 1.29zm-7.6-9.02h5.068a1.271 1.271 0 0 1 .7.22l3.8 2.58a1.291 1.291 0 0 1 .509 1.44 1.25 1.25 0 0 1-1.914.7l-3.482-2.36h-4.688a1.29 1.29 0 0 1 .004-2.58zm37.148-8.28c-3.132 4.49-6.257 8.51-8.327 11.09-.3.37-.586.72-.86 1.06h6.253a1.285 1.285 0 0 1 0 2.57h-20.278a1.285 1.285 0 0 1 0-2.57h6.253c-.274-.34-.556-.69-.858-1.06-2.072-2.59-5.2-6.6-8.329-11.09a113.08 113.08 0 0 1-8.371-13.71c-2.588-5.17-3.9-9.46-3.9-12.75a26.044 26.044 0 0 1 1.993-10.04 25.222 25.222 0 0 1 33.224-13.73 1.3 1.3 0 0 1 .268 2.22 1.244 1.244 0 0 1-1.258.16 22.613 22.613 0 0 0-17.753 0 23.237 23.237 0 0 0-13.939 21.39c0 2.88 1.216 6.78 3.624 11.58a111.293 111.293 0 0 0 8.181 13.39c3.089 4.43 6.178 8.4 8.224 10.95.68.85 1.293 1.6 1.815 2.23a1.261 1.261 0 0 0 1.931 0c.522-.63 1.134-1.38 1.814-2.23 2.047-2.55 5.135-6.52 8.224-10.95a111.293 111.293 0 0 0 8.181-13.39c2.4-4.8 3.625-8.7 3.625-11.58a23.385 23.385 0 0 0-6.681-16.42 1.294 1.294 0 0 1 .561-2.17 1.258 1.258 0 0 1 1.232.35 25.966 25.966 0 0 1 7.422 18.24c0 3.29-1.313 7.58-3.9 12.75a113.865 113.865 0 0 1-8.374 13.71zm-6.249-36.32a1.282 1.282 0 0 1 .9-.92 1.258 1.258 0 0 1 1.232.35 13.035 13.035 0 0 1 1.576 16.26 12.561 12.561 0 0 1-15.385 4.75 12.924 12.924 0 0 1-7.579-14.41 12.725 12.725 0 0 1 12.428-10.37 1.285 1.285 0 0 1 0 2.57 10.187 10.187 0 0 0-9.942 8.3 10.34 10.34 0 0 0 6.063 11.53 10.047 10.047 0 0 0 12.309-3.8 10.431 10.431 0 0 0-1.261-13.01 1.294 1.294 0 0 1-.344-1.25z" transform="translate(-467.969 -5447)" fill="#006bc0" fill-rule="evenodd"/><path d="M543.483 5521.05a3.894 3.894 0 0 1-3.412 1.95H471.9a3.9 3.9 0 0 1-3.413-1.95 3.789 3.789 0 0 1-.039-3.75l7.792-14.17a3.933 3.933 0 0 1 3.451-2.03h9.031a1.29 1.29 0 0 1 0 2.58h-9.031a1.4 1.4 0 0 0-1.237.7l-7.791 14.17a1.174 1.174 0 0 0 .012 1.19 1.358 1.358 0 0 0 1.225.68h68.174a1.361 1.361 0 0 0 1.227-.68 1.174 1.174 0 0 0 .011-1.19l-7.79-14.17a1.407 1.407 0 0 0-1.238-.7h-9.034a1.29 1.29 0 0 1 0-2.58h9.031a3.93 3.93 0 0 1 3.448 2.03l7.793 14.17a3.789 3.789 0 0 1-.039 3.75zm-9.621-5.78a1.29 1.29 0 0 1 0 2.58h-10.137a1.29 1.29 0 0 1 0-2.58h10.137zm-13.726-3.15a1.294 1.294 0 0 1 .351-1.78l3.8-2.58a1.265 1.265 0 0 1 .7-.22h5.069a1.29 1.29 0 0 1 0 2.58h-4.689l-3.478 2.36a1.262 1.262 0 0 1-1.753-.36zm-30.625 4.44a1.281 1.281 0 0 1-1.267 1.29h-10.138a1.29 1.29 0 0 1 0-2.58h10.138a1.281 1.281 0 0 1 1.267 1.29zm-7.6-9.02h5.068a1.271 1.271 0 0 1 .7.22l3.8 2.58a1.291 1.291 0 0 1 .509 1.44 1.25 1.25 0 0 1-1.914.7l-3.482-2.36h-4.688a1.29 1.29 0 0 1 .004-2.58zm37.149-8.28c-3.133 4.49-6.258 8.51-8.328 11.09-.3.37-.586.72-.86 1.06h6.253a1.285 1.285 0 0 1 0 2.57h-20.278a1.285 1.285 0 0 1 0-2.57h6.253c-.274-.34-.556-.69-.858-1.06-2.072-2.59-5.2-6.6-8.329-11.09a113.08 113.08 0 0 1-8.371-13.71c-2.588-5.17-3.9-9.46-3.9-12.75a26.042 26.042 0 0 1 1.991-10.04 25.223 25.223 0 0 1 33.225-13.73 1.3 1.3 0 0 1 .268 2.22 1.244 1.244 0 0 1-1.258.16 22.613 22.613 0 0 0-17.753 0 23.237 23.237 0 0 0-13.939 21.39c0 2.88 1.216 6.78 3.624 11.58a111.293 111.293 0 0 0 8.181 13.39c3.089 4.43 6.177 8.4 8.224 10.95.681.85 1.293 1.6 1.815 2.23a1.261 1.261 0 0 0 1.931 0c.522-.63 1.134-1.38 1.814-2.23 2.047-2.55 5.135-6.52 8.224-10.95a111.293 111.293 0 0 0 8.181-13.39c2.4-4.8 3.624-8.7 3.624-11.58a23.38 23.38 0 0 0-6.68-16.42 1.294 1.294 0 0 1 .561-2.17 1.258 1.258 0 0 1 1.232.35 25.971 25.971 0 0 1 7.422 18.24c0 3.29-1.313 7.58-3.9 12.75a113.986 113.986 0 0 1-8.372 13.71zm-6.25-36.32a1.282 1.282 0 0 1 .9-.92 1.258 1.258 0 0 1 1.232.35 13.035 13.035 0 0 1 1.576 16.26 12.56 12.56 0 0 1-15.385 4.75 12.924 12.924 0 0 1-7.579-14.41 12.725 12.725 0 0 1 12.428-10.37 1.285 1.285 0 0 1 0 2.57 10.187 10.187 0 0 0-9.942 8.3 10.34 10.34 0 0 0 6.063 11.53 10.047 10.047 0 0 0 12.309-3.8 10.433 10.433 0 0 0-1.261-13.01 1.294 1.294 0 0 1-.344-1.25z" transform="translate(-467.969 -5447)" fill="#fff" fill-rule="evenodd"/></svg>