<svg id="Offline.svg" xmlns="http://www.w3.org/2000/svg" width="92" height="91"><path id="Shape_12_copy_2" data-name="Shape 12 copy 2" d="M1459.56 5506.28h-9.69l-1.22-4.84a11.333 11.333 0 0 0-7.02-7.88l-9.35-3.49-4.48-1.67v-4.5a8.847 8.847 0 0 0 5.46-7.3v-.03l.34-4.54a4.889 4.889 0 0 0 4.2-4.85v-1.59a4.938 4.938 0 0 0-3.37-4.66l.12-1.69a14.585 14.585 0 0 0 .08-1.61 15.47 15.47 0 0 0-27.02-10.45 15.775 15.775 0 0 0-3.9 12.09l.01.08.12 1.57a4.913 4.913 0 0 0-3.39 4.67v1.59a4.885 4.885 0 0 0 4.23 4.86l.35 4.6v.04a8.91 8.91 0 0 0 5.1 7.13v4.61l-13.76 5.14a11.309 11.309 0 0 0-6.78 7.06 2.452 2.452 0 0 0-.27-.02h-1.01v-5.78a2.715 2.715 0 0 1 1.03-2.14l8.07-6.49a3.569 3.569 0 0 0 1.33.46 3.866 3.866 0 0 0 .48.03 3.551 3.551 0 0 0 2.16-.74l2.17-1.67a3.639 3.639 0 0 0 .66-5.06 3.554 3.554 0 0 0-5.01-.67l-2.16 1.67a3.61 3.61 0 0 0-1.26 3.85l-8.08 6.52a5.344 5.344 0 0 0-2.05 4.24v5.79h-1.01a3.431 3.431 0 0 0-3.42 3.45v2.22h-2.78a3.468 3.468 0 0 0-3.44 3.48v8.23a3.466 3.466 0 0 0 3.44 3.47h3.58v8.2a1.33 1.33 0 1 0 2.66 0v-8.2h57.6a1.34 1.34 0 0 0 0-2.68h-63.84a.79.79 0 0 1-.78-.79v-8.23a.783.783 0 0 1 .78-.79h17.34a1.345 1.345 0 0 0 0-2.69h-3.04v-2.22a3.459 3.459 0 0 0-.76-2.16 8.657 8.657 0 0 1 5.31-5.83l8.55-3.19 6.73 6.76a1.32 1.32 0 0 0 1.81.06l4.6-4.07 4.4 4.05a1.317 1.317 0 0 0 1.82-.03l6.94-6.77 8.57 3.19a8.67 8.67 0 0 1 5.36 6.03l1.05 4.18h-26.79v-7.05a1.33 1.33 0 1 0-2.66 0v7.05h-15.95a1.345 1.345 0 0 0 0 2.69h57.84a.783.783 0 0 1 .78.79v8.23a.79.79 0 0 1-.78.79h-11.14a1.34 1.34 0 0 0 0 2.68h4.9v8.2a1.33 1.33 0 1 0 2.66 0v-8.2h3.58a3.466 3.466 0 0 0 3.44-3.47v-8.23a3.468 3.468 0 0 0-3.44-3.48zm-61.25-23.33a.894.894 0 0 1 .35-.61l2.16-1.67a.875.875 0 0 1 .55-.19.9.9 0 0 1 .73.36.922.922 0 0 1-.17 1.29l-2.16 1.67a.937.937 0 0 1-.68.19.924.924 0 0 1-.6-.36.866.866 0 0 1-.18-.68zm-14.43 23.33v-2.22a.762.762 0 0 1 .76-.77h4.68a.771.771 0 0 1 .42.13h.01a.786.786 0 0 1 .33.64v2.22h-6.2zm35.12-14.01l-6.21-3.68v-3.81l3.27 1.16a8.757 8.757 0 0 0 2.9.5 8.606 8.606 0 0 0 2.8-.46l3.39-1.16v3.75zm16.14-26.68v1.59a2.215 2.215 0 0 1-1.33 2.03l.4-5.42a2.216 2.216 0 0 1 .93 1.8zm-32.04 1.59v-1.59a2.23 2.23 0 0 1 .95-1.82l.42 5.46a2.237 2.237 0 0 1-1.37-2.05zm4.58 9.23l-1.02-13.4a10.468 10.468 0 0 0 3.72-2.22 10.6 10.6 0 0 0 2.63-3.82 25.562 25.562 0 0 0 5.73 3.82 24.788 24.788 0 0 0 4.17 1.61 1.341 1.341 0 0 0 .73-2.58 24.364 24.364 0 0 1-3.75-1.44 23.278 23.278 0 0 1-6.12-4.35 1.683 1.683 0 0 0-1.65-.43 1.716 1.716 0 0 0-1.2 1.23 8.1 8.1 0 0 1-2.33 3.98 8.206 8.206 0 0 1-2.14 1.41l-.09-1.18v-.03a13.056 13.056 0 0 1 3.23-10.04 12.813 12.813 0 0 1 22.38 8.66 12.208 12.208 0 0 1-.07 1.35v.04l-.12 1.66h-3.05c-.1 0-.21-.01-.32-.02a1.343 1.343 0 0 0-.19 2.68l.4.03h2.96l-.54 7.22v.03l-.43 5.72a6.159 6.159 0 0 1-4.11 5.19l-.41.14a.169.169 0 0 0-.05.02l-5.13 1.74a6.07 6.07 0 0 1-3.97-.02l-5.22-1.85a6.158 6.158 0 0 1-4.04-5.15zm5.88 20.44l-4.97-4.99 2.74-1.02 5.41 3.2zm10.69 0l-3.03-2.79 5.39-3.24 2.76 1.03z" transform="translate(-1372 -5440)" fill-rule="evenodd" fill="#008eff"/><path id="Shape_12_copy" data-name="Shape 12 copy" d="M1460.56 5504.28h-9.69l-1.22-4.84a11.333 11.333 0 0 0-7.02-7.88l-9.35-3.49-4.48-1.67v-4.5a8.847 8.847 0 0 0 5.46-7.3v-.03l.34-4.54a4.889 4.889 0 0 0 4.2-4.85v-1.59a4.938 4.938 0 0 0-3.37-4.66l.12-1.69a14.585 14.585 0 0 0 .08-1.61 15.47 15.47 0 0 0-27.02-10.45 15.775 15.775 0 0 0-3.9 12.09l.01.08.12 1.57a4.913 4.913 0 0 0-3.39 4.67v1.59a4.885 4.885 0 0 0 4.23 4.86l.35 4.6v.04a8.91 8.91 0 0 0 5.1 7.13v4.61l-13.76 5.14a11.309 11.309 0 0 0-6.78 7.06 2.452 2.452 0 0 0-.27-.02h-1.01v-5.78a2.715 2.715 0 0 1 1.03-2.14l8.07-6.49a3.569 3.569 0 0 0 1.33.46 3.866 3.866 0 0 0 .48.03 3.551 3.551 0 0 0 2.16-.74l2.17-1.67a3.639 3.639 0 0 0 .66-5.06 3.554 3.554 0 0 0-5.01-.67l-2.16 1.67a3.61 3.61 0 0 0-1.26 3.85l-8.08 6.52a5.344 5.344 0 0 0-2.05 4.24v5.79h-1.01a3.431 3.431 0 0 0-3.42 3.45v2.22h-2.78a3.468 3.468 0 0 0-3.44 3.48v8.23a3.466 3.466 0 0 0 3.44 3.47h3.58v8.2a1.33 1.33 0 1 0 2.66 0v-8.2h57.6a1.34 1.34 0 0 0 0-2.68h-63.84a.79.79 0 0 1-.78-.79v-8.23a.783.783 0 0 1 .78-.79h17.34a1.345 1.345 0 0 0 0-2.69h-3.04v-2.22a3.459 3.459 0 0 0-.76-2.16 8.657 8.657 0 0 1 5.31-5.83l8.55-3.19 6.73 6.76a1.32 1.32 0 0 0 1.81.06l4.6-4.07 4.4 4.05a1.317 1.317 0 0 0 1.82-.03l6.94-6.77 8.57 3.19a8.67 8.67 0 0 1 5.36 6.03l1.05 4.18h-26.79v-7.05a1.33 1.33 0 1 0-2.66 0v7.05h-15.95a1.345 1.345 0 0 0 0 2.69h57.84a.783.783 0 0 1 .78.79v8.23a.79.79 0 0 1-.78.79h-11.14a1.34 1.34 0 0 0 0 2.68h4.9v8.2a1.33 1.33 0 1 0 2.66 0v-8.2h3.58a3.466 3.466 0 0 0 3.44-3.47v-8.23a3.468 3.468 0 0 0-3.44-3.48zm-61.25-23.33a.894.894 0 0 1 .35-.61l2.16-1.67a.875.875 0 0 1 .55-.19.9.9 0 0 1 .73.36.922.922 0 0 1-.17 1.29l-2.16 1.67a.937.937 0 0 1-.68.19.924.924 0 0 1-.6-.36.866.866 0 0 1-.18-.68zm-14.43 23.33v-2.22a.762.762 0 0 1 .76-.77h4.68a.771.771 0 0 1 .42.13h.01a.786.786 0 0 1 .33.64v2.22h-6.2zm35.12-14.01l-6.21-3.68v-3.81l3.27 1.16a8.757 8.757 0 0 0 2.9.5 8.606 8.606 0 0 0 2.8-.46l3.39-1.16v3.75zm16.14-26.68v1.59a2.215 2.215 0 0 1-1.33 2.03l.4-5.42a2.216 2.216 0 0 1 .93 1.8zm-32.04 1.59v-1.59a2.23 2.23 0 0 1 .95-1.82l.42 5.46a2.237 2.237 0 0 1-1.37-2.05zm4.58 9.23l-1.02-13.4a10.468 10.468 0 0 0 3.72-2.22 10.6 10.6 0 0 0 2.63-3.82 25.562 25.562 0 0 0 5.73 3.82 24.788 24.788 0 0 0 4.17 1.61 1.341 1.341 0 0 0 .73-2.58 24.364 24.364 0 0 1-3.75-1.44 23.278 23.278 0 0 1-6.12-4.35 1.683 1.683 0 0 0-1.65-.43 1.716 1.716 0 0 0-1.2 1.23 8.1 8.1 0 0 1-2.33 3.98 8.206 8.206 0 0 1-2.14 1.41l-.09-1.18v-.03a13.056 13.056 0 0 1 3.23-10.04 12.813 12.813 0 0 1 22.38 8.66 12.208 12.208 0 0 1-.07 1.35v.04l-.12 1.66h-3.05c-.1 0-.21-.01-.32-.02a1.343 1.343 0 0 0-.19 2.68l.4.03h2.96l-.54 7.22v.03l-.43 5.72a6.159 6.159 0 0 1-4.11 5.19l-.41.14a.169.169 0 0 0-.05.02l-5.13 1.74a6.07 6.07 0 0 1-3.97-.02l-5.22-1.85a6.158 6.158 0 0 1-4.04-5.15zm5.88 20.44l-4.97-4.99 2.74-1.02 5.41 3.2zm10.69 0l-3.03-2.79 5.39-3.24 2.76 1.03z" transform="translate(-1372 -5440)" fill="#006bc0" fill-rule="evenodd"/><path d="M1456.56 5506.28h-9.69l-1.22-4.84a11.333 11.333 0 0 0-7.02-7.88l-9.35-3.49-4.48-1.67v-4.5a8.847 8.847 0 0 0 5.46-7.3v-.03l.34-4.54a4.889 4.889 0 0 0 4.2-4.85v-1.59a4.938 4.938 0 0 0-3.37-4.66l.12-1.69a14.585 14.585 0 0 0 .08-1.61 15.47 15.47 0 0 0-27.02-10.45 15.775 15.775 0 0 0-3.9 12.09l.01.08.12 1.57a4.913 4.913 0 0 0-3.39 4.67v1.59a4.885 4.885 0 0 0 4.23 4.86l.35 4.6v.04a8.91 8.91 0 0 0 5.1 7.13v4.61l-13.76 5.14a11.309 11.309 0 0 0-6.78 7.06 2.452 2.452 0 0 0-.27-.02h-1.01v-5.78a2.715 2.715 0 0 1 1.03-2.14l8.07-6.49a3.569 3.569 0 0 0 1.33.46 3.866 3.866 0 0 0 .48.03 3.551 3.551 0 0 0 2.16-.74l2.17-1.67a3.639 3.639 0 0 0 .66-5.06 3.554 3.554 0 0 0-5.01-.67l-2.16 1.67a3.61 3.61 0 0 0-1.26 3.85l-8.08 6.52a5.344 5.344 0 0 0-2.05 4.24v5.79h-1.01a3.431 3.431 0 0 0-3.42 3.45v2.22h-2.78a3.468 3.468 0 0 0-3.44 3.48v8.23a3.466 3.466 0 0 0 3.44 3.47h3.58v8.2a1.33 1.33 0 1 0 2.66 0v-8.2h57.6a1.34 1.34 0 0 0 0-2.68h-63.84a.79.79 0 0 1-.78-.79v-8.23a.783.783 0 0 1 .78-.79h17.34a1.345 1.345 0 0 0 0-2.69h-3.04v-2.22a3.459 3.459 0 0 0-.76-2.16 8.657 8.657 0 0 1 5.31-5.83l8.55-3.19 6.73 6.76a1.32 1.32 0 0 0 1.81.06l4.6-4.07 4.4 4.05a1.317 1.317 0 0 0 1.82-.03l6.94-6.77 8.57 3.19a8.67 8.67 0 0 1 5.36 6.03l1.05 4.18h-26.79v-7.05a1.33 1.33 0 1 0-2.66 0v7.05h-15.95a1.345 1.345 0 0 0 0 2.69h57.84a.783.783 0 0 1 .78.79v8.23a.79.79 0 0 1-.78.79h-11.14a1.34 1.34 0 0 0 0 2.68h4.9v8.2a1.33 1.33 0 1 0 2.66 0v-8.2h3.58a3.466 3.466 0 0 0 3.44-3.47v-8.23a3.468 3.468 0 0 0-3.44-3.48zm-61.25-23.33a.894.894 0 0 1 .35-.61l2.16-1.67a.875.875 0 0 1 .55-.19.9.9 0 0 1 .73.36.922.922 0 0 1-.17 1.29l-2.16 1.67a.937.937 0 0 1-.68.19.924.924 0 0 1-.6-.36.866.866 0 0 1-.18-.68zm-14.43 23.33v-2.22a.762.762 0 0 1 .76-.77h4.68a.771.771 0 0 1 .42.13h.01a.786.786 0 0 1 .33.64v2.22h-6.2zm35.12-14.01l-6.21-3.68v-3.81l3.27 1.16a8.757 8.757 0 0 0 2.9.5 8.606 8.606 0 0 0 2.8-.46l3.39-1.16v3.75zm16.14-26.68v1.59a2.215 2.215 0 0 1-1.33 2.03l.4-5.42a2.216 2.216 0 0 1 .93 1.8zm-32.04 1.59v-1.59a2.23 2.23 0 0 1 .95-1.82l.42 5.46a2.237 2.237 0 0 1-1.37-2.05zm4.58 9.23l-1.02-13.4a10.468 10.468 0 0 0 3.72-2.22 10.6 10.6 0 0 0 2.63-3.82 25.729 25.729 0 0 0 5.72 3.82 25.227 25.227 0 0 0 4.18 1.61 1.341 1.341 0 0 0 .73-2.58 24.364 24.364 0 0 1-3.75-1.44 23.278 23.278 0 0 1-6.12-4.35 1.683 1.683 0 0 0-1.65-.43 1.716 1.716 0 0 0-1.2 1.23 7.974 7.974 0 0 1-4.47 5.39l-.09-1.18v-.03a13.056 13.056 0 0 1 3.23-10.04 12.813 12.813 0 0 1 22.38 8.66 12.208 12.208 0 0 1-.07 1.35v.04l-.12 1.66h-3.05c-.1 0-.21-.01-.32-.02a1.343 1.343 0 0 0-.19 2.68l.4.03h2.96l-.54 7.22v.03l-.43 5.72a6.159 6.159 0 0 1-4.11 5.19l-.41.14a.169.169 0 0 0-.05.02l-5.13 1.74a6.07 6.07 0 0 1-3.97-.02l-5.22-1.85a6.158 6.158 0 0 1-4.04-5.15zm5.88 20.44l-4.97-4.99 2.74-1.02 5.41 3.2zm10.69 0l-3.03-2.79 5.39-3.24 2.76 1.03z" transform="translate(-1372 -5440)" fill="#fff" fill-rule="evenodd"/></svg>