<svg id="Online.svg" xmlns="http://www.w3.org/2000/svg" width="82" height="79"><path id="Shape_11_copy_2" data-name="Shape 11 copy 2" d="M1005.6 5511.97a2.939 2.939 0 0 1-2.9.11l-.07-.04-13.8-8.31v7.11a4.189 4.189 0 0 1-4.155 4.21h-51.568a4.186 4.186 0 0 1-4.155-4.2v-39.03a4.18 4.18 0 0 1 4.155-4.2h2.815a11.879 11.879 0 0 1 7.348-21.08 11.663 11.663 0 0 1 9.545 5 14.942 14.942 0 0 1 29.5 3.56 15.194 15.194 0 0 1-6.547 12.52h8.9a4.18 4.18 0 0 1 4.155 4.2v7.11l13.8-8.31a2.943 2.943 0 0 1 2.97.08 3.049 3.049 0 0 1 1.45 2.62v36.02a3.053 3.053 0 0 1-1.443 2.63zm-62.33-62.8a9.226 9.226 0 1 0 9.111 9.22 9.179 9.179 0 0 0-9.111-9.22zm7.347 18.45h8.311a15.173 15.173 0 0 1-4.656-5.17 11.92 11.92 0 0 1-3.655 5.17zm29.1-12.52a12.366 12.366 0 1 0-12.365 12.52 12.46 12.46 0 0 0 12.362-12.52zm6.508 47.07v-30.35a1.566 1.566 0 0 0-1.551-1.57h-51.567a1.567 1.567 0 0 0-1.552 1.57v39.02a1.561 1.561 0 0 0 1.552 1.57h51.564a1.558 1.558 0 0 0 1.551-1.56v-8.68zm18.218-28.85a.393.393 0 0 0-.2-.37.308.308 0 0 0-.35-.02l-15.067 9.07v18.67l15.084 9.08a.333.333 0 0 0 .33-.03.424.424 0 0 0 .2-.38v-36.02zm-33.843 20.22l-16.857 9.91a2.637 2.637 0 0 1-1.333.36 2.644 2.644 0 0 1-2.634-2.64v-19.82a2.63 2.63 0 0 1 3.967-2.28l16.857 9.9a2.655 2.655 0 0 1 0 4.57zm-18.165-12.19l-.056 19.82 16.912-9.91zm5.15-26.25a9.832 9.832 0 0 1 9.762-9.88 1.315 1.315 0 0 1 0 2.63 7.251 7.251 0 1 0 7.159 7.25 1.3 1.3 0 1 1 2.6 0 9.763 9.763 0 1 1-19.519 0zm-14.317 9.88a6.552 6.552 0 0 1-6.508-6.59 1.3 1.3 0 1 1 2.6 0 3.9 3.9 0 1 0 3.9-3.95 1.315 1.315 0 0 1 0-2.63 6.585 6.585 0 0 1 .01 13.17z" transform="translate(-927 -5438)" fill-rule="evenodd" fill="#008eff"/><path id="Shape_11_copy" data-name="Shape 11 copy" d="M1007.56 5510.02a3.02 3.02 0 0 1-1.56.44 2.956 2.956 0 0 1-1.35-.33l-.07-.04-13.8-8.31v7.11a4.188 4.188 0 0 1-4.155 4.21h-51.566a4.188 4.188 0 0 1-4.154-4.21v-39.02a4.179 4.179 0 0 1 4.154-4.2h2.816a11.879 11.879 0 0 1 7.347-21.08 11.663 11.663 0 0 1 9.545 5 14.943 14.943 0 0 1 29.5 3.56 15.2 15.2 0 0 1-6.547 12.52h8.9a4.18 4.18 0 0 1 4.155 4.2v7.11l13.8-8.31a2.963 2.963 0 0 1 2.98.08 3.062 3.062 0 0 1 1.44 2.62v36.02a3.066 3.066 0 0 1-1.435 2.63zm-62.338-62.8a9.226 9.226 0 1 0 9.112 9.22 9.179 9.179 0 0 0-9.112-9.22zm7.347 18.45h8.312a15.176 15.176 0 0 1-4.657-5.17 11.971 11.971 0 0 1-3.655 5.17zm29.1-12.52a12.366 12.366 0 1 0-12.365 12.52 12.46 12.46 0 0 0 12.363-12.52zm6.507 47.07v-30.35a1.566 1.566 0 0 0-1.551-1.57h-51.566a1.566 1.566 0 0 0-1.551 1.57v39.02a1.56 1.56 0 0 0 1.551 1.57h51.564a1.56 1.56 0 0 0 1.551-1.57v-8.67zm18.226-28.85a.428.428 0 0 0-.21-.38.329.329 0 0 0-.35-.01l-15.062 9.07v18.67l15.082 9.08a.333.333 0 0 0 .33-.03.428.428 0 0 0 .21-.38v-36.02zm-33.846 20.22l-16.856 9.91a2.64 2.64 0 0 1-3.967-2.28v-19.82a2.63 2.63 0 0 1 3.967-2.28l16.857 9.9a2.655 2.655 0 0 1-.003 4.57zm-18.164-12.2l-.056 19.83 16.912-9.91zm5.15-26.24a9.832 9.832 0 0 1 9.762-9.88 1.315 1.315 0 0 1 0 2.63 7.251 7.251 0 1 0 7.158 7.25 1.3 1.3 0 1 1 2.6 0 9.763 9.763 0 1 1-19.522 0zm-14.318 9.88a6.553 6.553 0 0 1-6.508-6.59 1.3 1.3 0 1 1 2.6 0 3.905 3.905 0 1 0 3.9-3.95 1.315 1.315 0 0 1 0-2.63 6.585 6.585 0 0 1 .006 13.17z" transform="translate(-927 -5438)" fill="#006bc0" fill-rule="evenodd"/><path d="M1003.65 5513.92a2.894 2.894 0 0 1-1.55.44 2.835 2.835 0 0 1-1.35-.33l-.08-.04-13.8-8.3v7.1a4.188 4.188 0 0 1-4.154 4.21h-51.561a4.186 4.186 0 0 1-4.155-4.2v-39.03a4.18 4.18 0 0 1 4.155-4.2h2.815a11.879 11.879 0 0 1 7.347-21.08 11.645 11.645 0 0 1 9.545 5.01 14.941 14.941 0 0 1 29.5 3.55 15.2 15.2 0 0 1-6.547 12.52h8.9a4.18 4.18 0 0 1 4.154 4.2v7.11l13.807-8.31a2.943 2.943 0 0 1 2.97.08 3.071 3.071 0 0 1 1.45 2.62v36.02a3.075 3.075 0 0 1-1.446 2.63zm-62.333-62.8a9.226 9.226 0 1 0 9.112 9.23 9.182 9.182 0 0 0-9.112-9.23zm7.348 18.45h8.311a15.186 15.186 0 0 1-4.657-5.17 11.918 11.918 0 0 1-3.654 5.17zm29.1-12.52a12.366 12.366 0 1 0-12.365 12.52 12.452 12.452 0 0 0 12.362-12.52zm6.507 47.07v-30.35a1.565 1.565 0 0 0-1.55-1.57h-51.567a1.567 1.567 0 0 0-1.552 1.57v39.02a1.561 1.561 0 0 0 1.552 1.57h51.564a1.557 1.557 0 0 0 1.55-1.56v-8.68zm18.221-28.85a.393.393 0 0 0-.2-.37.345.345 0 0 0-.36-.02l-15.057 9.07v18.67l15.087 9.08a.336.336 0 0 0 .33-.03.411.411 0 0 0 .2-.38v-36.02zm-33.84 20.22l-16.857 9.91a2.637 2.637 0 0 1-1.333.36 2.644 2.644 0 0 1-2.634-2.64v-19.82a2.63 2.63 0 0 1 3.967-2.28l16.857 9.91a2.646 2.646 0 0 1-.003 4.56zm-18.165-12.19l-.056 19.82 16.912-9.91zm5.15-26.25a9.832 9.832 0 0 1 9.762-9.88 1.32 1.32 0 0 1 0 2.64 7.246 7.246 0 1 0 7.159 7.24 1.3 1.3 0 1 1 2.6 0 9.763 9.763 0 1 1-19.524 0zm-14.318 9.88a6.551 6.551 0 0 1-6.508-6.58 1.3 1.3 0 1 1 2.6 0 3.9 3.9 0 1 0 3.9-3.96 1.315 1.315 0 0 1 0-2.63 6.585 6.585 0 0 1 .005 13.17z" transform="translate(-927 -5438)" fill="#fff" fill-rule="evenodd"/></svg>