<svg id="youtube.svg" xmlns="http://www.w3.org/2000/svg" width="39.94" height="28.75"><path id="Shape_1_copy_6" data-name="Shape 1 copy 6" d="M1623.3 8117.13h-26.8a5.658 5.658 0 0 0-5.7 5.6v12.53a.6.6 0 0 0 1.2 0v-12.53a4.473 4.473 0 0 1 4.5-4.43h26.8a4.473 4.473 0 0 1 4.5 4.43v17.54a4.465 4.465 0 0 1-4.5 4.42h-26.8a4.465 4.465 0 0 1-4.5-4.42v-2.51a.6.6 0 0 0-1.2 0v2.51a5.658 5.658 0 0 0 5.7 5.6h26.8a5.658 5.658 0 0 0 5.7-5.6v-17.54a5.658 5.658 0 0 0-5.7-5.6zm-5.42 13.88l-2.55-1.63a.606.606 0 0 0-.83.17.576.576 0 0 0 .18.81l1.78 1.14-11.06 7.06v-14.12l7.36 4.7a.606.606 0 0 0 .83-.17.582.582 0 0 0-.17-.81l-8.3-5.3a.6.6 0 0 0-.92.49v16.29a.6.6 0 0 0 .92.5l12.76-8.15a.58.58 0 0 0 0-.98z" transform="translate(-1589.06 -8117.13)" fill-rule="evenodd" fill="#008eff"/><path d="M1621.34 8117.13h-26.61a5.638 5.638 0 0 0-5.67 5.6v12.53a.6.6 0 0 0 1.19 0v-12.53a4.462 4.462 0 0 1 4.48-4.43h26.61a4.454 4.454 0 0 1 4.47 4.43v17.54a4.445 4.445 0 0 1-4.47 4.42h-26.61a4.454 4.454 0 0 1-4.48-4.42v-2.51a.6.6 0 0 0-1.19 0v2.51a5.638 5.638 0 0 0 5.67 5.6h26.61a5.636 5.636 0 0 0 5.66-5.6v-17.54a5.636 5.636 0 0 0-5.66-5.6zm-5.38 13.88l-2.54-1.63a.6.6 0 0 0-.82.17.576.576 0 0 0 .18.81l1.77 1.14-10.99 7.06v-14.12l7.32 4.7a.6.6 0 0 0 .82-.17.576.576 0 0 0-.18-.81l-8.23-5.3a.6.6 0 0 0-.92.49v16.29a.6.6 0 0 0 .92.5l12.67-8.15a.589.589 0 0 0 0-.98z" transform="translate(-1589.06 -8117.13)" fill="#006bc0" fill-rule="evenodd"/></svg>